<svg xmlns="http://www.w3.org/2000/svg" fill="none" viewBox="0 0 72 21"><rect width="72" height="21" fill="#313131" rx="10.5"/><path fill="#fff" d="M16.5415 9h-.8806c-.0521-.25331-.1433-.47585-.2735-.66761-.1278-.19177-.2841-.35275-.4687-.48296-.1823-.13257-.3847-.23201-.6073-.29829-.2225-.06629-.4545-.09944-.696-.09944-.4403 0-.8392.11127-1.1967.33381-.3551.22254-.638.55043-.8487.98367-.2084.43323-.3125.96472-.3125 1.59442 0 .6298.1041 1.1613.3125 1.5945.2107.4332.4936.7611.8487.9837.3575.2225.7564.3338 1.1967.3338.2415 0 .4735-.0332.696-.0995.2226-.0663.425-.1645.6073-.2947.1846-.1326.3409-.2948.4687-.4865.1302-.1941.2214-.4167.2735-.6676h.8806c-.0662.3717-.187.7043-.3622.9978-.1752.2936-.393.5434-.6534.7493-.2604.2036-.5528.3587-.8771.4652-.322.1066-.6664.1598-1.0334.1598-.6203 0-1.1719-.1515-1.6548-.4545-.483-.303-.8629-.7339-1.1399-1.2926-.277-.5587-.4155-1.2216-.4155-1.9887 0-.76701.1385-1.42989.4155-1.9886.277-.55871.6569-.98958 1.1399-1.29261.4829-.30303 1.0345-.45455 1.6548-.45455.367 0 .7114.05327 1.0334.1598.3243.10654.6167.26279.8771.46875.2604.2036.4782.45218.6534.74574.1752.29119.296.62382.3622.99787Zm3.5254 5.1136c-.4924 0-.9244-.1172-1.2961-.3515-.3693-.2344-.6582-.5623-.8665-.9837-.206-.4214-.309-.9138-.309-1.4773 0-.5681.103-1.0641.309-1.48789.2083-.42377.4972-.75284.8665-.98722.3717-.23437.8037-.35156 1.2961-.35156.4925 0 .9233.11719 1.2927.35156.3716.23438.6605.56345.8664.98722.2084.42379.3125.91979.3125 1.48789 0 .5635-.1041 1.0559-.3125 1.4773-.2059.4214-.4948.7493-.8664.9837-.3694.2343-.8002.3515-1.2927.3515Zm0-.7528c.3741 0 .6819-.0959.9233-.2876.2415-.1918.4203-.4439.5363-.7564.116-.3125.174-.6511.174-1.0157 0-.3645-.058-.7043-.174-1.0191-.116-.31491-.2948-.56941-.5363-.76353-.2414-.19413-.5492-.2912-.9233-.2912-.374 0-.6818.09707-.9233.2912-.2414.19412-.4202.44862-.5362.76353-.116.3148-.174.6546-.174 1.0191 0 .3646.058.7032.174 1.0157.116.3125.2948.5646.5362.7564.2415.1917.5493.2876.9233.2876Zm4.1513-4.81535 1.3068 2.23015 1.3069-2.23015h.9659l-1.7614 2.72725L27.7978 14h-.9659l-1.3069-2.1165L24.2182 14h-.9659l1.733-2.7273-1.733-2.72725h.9659Zm4.7754 7.50005V8.54545h.8097v.86648h.0994c.0616-.0947.1468-.21543.2557-.36221.1112-.14915.2699-.28173.4758-.39773.2084-.11837.4901-.17756.8452-.17756.4593 0 .8641.11482 1.2145.34446.3504.22964.6238.55516.8203.97656.1965.42145.2947.91855.2947 1.49145 0 .5777-.0982 1.0784-.2947 1.5022-.1965.4214-.4687.7481-.8168.9801-.348.2296-.7492.3444-1.2038.3444-.3504 0-.6309-.058-.8416-.174-.2107-.1183-.3729-.2521-.4865-.4012-.1137-.1516-.2012-.277-.2628-.3765h-.071v2.8836h-.8381Zm.8239-4.7728c0 .412.0603.7754.1811 1.0902.1207.3125.2971.5576.5291.7351.232.1752.5161.2628.8523.2628.3504 0 .6427-.0923.8771-.277.2367-.187.4143-.438.5327-.7528.1207-.3173.1811-.67.1811-1.0583 0-.3835-.0592-.7291-.1776-1.0369-.116-.31014-.2924-.55517-.5291-.73509-.2344-.18229-.5291-.27344-.8842-.27344-.3409 0-.6274.08641-.8594.25924-.232.17045-.4072.40956-.5256.71729-.1183.3054-.1775.6617-.1775 1.0689Zm6.875 2.8551c-.3457 0-.6594-.0651-.9411-.1953-.2817-.1325-.5054-.3231-.6711-.5717-.1658-.251-.2486-.554-.2486-.9091 0-.3125.0615-.5658.1846-.7599.1231-.1965.2877-.3504.4936-.4617.206-.1113.4333-.1941.6819-.2486.2509-.0568.503-.1018.7564-.1349.3314-.0426.6001-.0746.8061-.0959.2083-.0237.3598-.0627.4545-.1172.0971-.0544.1456-.1491.1456-.2841v-.0284c0-.35036-.0959-.62261-.2876-.81674-.1894-.19413-.4771-.29119-.863-.29119-.4001 0-.7137.08759-.941.26278-.2273.17519-.3871.36222-.4794.56105l-.7955-.28406c.1421-.33144.3315-.58949.5682-.77415.2391-.18702.4995-.31723.7813-.39062.284-.07576.5634-.11364.838-.11364.1752 0 .3764.02131.6037.06392.2297.04025.451.12429.6641.25213.2154.12784.3942.32079.5362.57884.142.25805.2131.60369.2131 1.03688V14h-.8381v-.7386h-.0426c-.0568.1183-.1515.245-.2841.3799-.1326.135-.3089.2498-.5291.3445-.2202.0947-.4889.142-.8061.142Zm.1278-.7528c.3315 0 .6108-.0651.8381-.1953.2296-.1302.4024-.2983.5184-.5043.1184-.2059.1776-.4226.1776-.6498v-.7671c-.0355.0426-.1136.0817-.2344.1172-.1183.0332-.2557.0627-.4119.0888-.1539.0237-.3042.045-.451.0639-.1444.0166-.2616.0308-.3516.0426-.2178.0284-.4214.0746-.6108.1385-.187.0616-.3385.1551-.4545.2806-.1136.1231-.1705.2911-.1705.5042 0 .2912.1078.5114.3232.6605.2178.1468.4936.2202.8274.2202Zm7.5524-2.4858v.7813h-3.0114v-.7813h3.0114Zm-2.8125-2.34375V14h-.8381V8.54545h.8381Zm3.4517 0V14h-.8381V8.54545h.8381Zm2.3686 4.21875 2.6278-4.21875h.966V14h-.8381V9.78125L47.5225 14h-.9801V8.54545h.8381v4.21875Zm4.3865-3.4375v-.78125h4.4319v.78125h-1.7898V14h-.8381V9.3267h-1.804Zm6.3788 1.1932h1.5625c.6392 0 1.1281.1622 1.4666.4865.3385.3243.5078.7351.5078 1.2322 0 .3267-.0758.6239-.2273.8914-.1515.2651-.374.477-.6676.6356-.2935.1563-.6534.2344-1.0795.2344h-2.287V8.54545h.8381v4.67335h1.4489c.3314 0 .6037-.0876.8167-.2628.2131-.1752.3196-.4001.3196-.6748 0-.2888-.1065-.5243-.3196-.7066-.213-.1823-.4853-.2735-.8167-.2735h-1.5625v-.7812Z"/></svg>